<?xml version="1.0" encoding="UTF-8"?>
<svg version="1.1" xmlns="http://www.w3.org/2000/svg" width="64" height="64">
<path d="M0 0 C1.79458945 0.22807491 3.58575449 0.48322303 5.375 0.75 C6.87160156 0.95882813 6.87160156 0.95882813 8.3984375 1.171875 C11 2 11 2 12.36328125 3.93359375 C13.88030702 8.85694731 10.99959911 13.56610631 9 18 C10.3921875 18.5259375 10.3921875 18.5259375 11.8125 19.0625 C16.48928209 21.9052499 17.34980577 25.427848 18.62109375 30.45703125 C19.11786324 32.632539 19.57769211 34.80896729 20 37 C13.23724434 41.76466876 8.18308248 42.69825704 0 42 C-4.42696263 40.93723579 -7.38698172 39.91952741 -10 36 C-9.4609375 32.75 -9.4609375 32.75 -8.375 29 C-8.03210938 27.7625 -7.68921875 26.525 -7.3359375 25.25 C-5.94661372 21.8701246 -5.14296862 20.73405165 -2 19 C-1.01 18.67 -0.02 18.34 1 18 C0.69964844 17.49210937 0.39929687 16.98421875 0.08984375 16.4609375 C-1.82839783 12.98859511 -3.03018946 10.78492598 -2.875 6.75 C-2.10280895 4.32311385 -1.164802 2.2525923 0 0 Z " fill="#96E49E" transform="translate(27,22)"/>
<path d="M0 0 C6.63385288 5.24508368 10.43276635 12.20182912 11.77734375 20.52734375 C12.44460181 29.03488402 10.01938888 36.81097343 4.77734375 43.52734375 C3.02734375 45.40234375 3.02734375 45.40234375 1.77734375 46.52734375 C0.78734375 46.19734375 -0.20265625 45.86734375 -1.22265625 45.52734375 C-0.5990681 42.3597994 0.49920506 40.1475588 2.27734375 37.46484375 C6.32664157 31.33204095 6.27445423 25.730756 5.77734375 18.52734375 C3.81818131 11.61265278 -0.45356838 5.63987998 -6.7734375 2.09765625 C-13.95251869 -0.84708709 -20.00846986 -1.14459645 -27.37890625 1.21875 C-33.88169369 4.00744538 -38.4160765 9.07127813 -41.66015625 15.27734375 C-43.32247445 24.88184889 -42.64953525 32.27190963 -37.22265625 40.52734375 C-36.56265625 41.18734375 -35.90265625 41.84734375 -35.22265625 42.52734375 C-35.22265625 43.51734375 -35.22265625 44.50734375 -35.22265625 45.52734375 C-38.56310485 45.24897303 -39.94290758 44.80709242 -42.34765625 42.40234375 C-47.25782426 34.87341947 -49.48268425 27.06240422 -47.76171875 18.13671875 C-45.31233158 8.74259856 -40.63373801 2.7597701 -32.3671875 -2.28515625 C-21.81304273 -8.1293457 -9.8394661 -6.51929476 0 0 Z " fill="#10D2FB" transform="translate(50.22265625,5.47265625)"/>
<path d="M0 0 C5.20894964 4.34079137 8.48633175 9.14489382 9.38671875 15.90234375 C9.63665156 22.7367134 8.57617373 27.1887177 5 33 C3.68 33 2.36 33 1 33 C1.41971405 29.99204933 1.84450206 27.35673058 3.0625 24.5625 C4.83224307 19.72520226 4.49212829 15.55562 2.5 10.875 C-0.00405777 6.37470038 -3.18599102 3.8031855 -8 2 C-13.2632191 0.98077344 -17.64880045 1.41728128 -22.375 4 C-26.42226744 6.90026857 -28.55942023 10.26148917 -30 15 C-30.68059969 20.54202605 -29.26938038 23.98845166 -27 29 C-27 30.32 -27 31.64 -27 33 C-28.32 33 -29.64 33 -31 33 C-35.09148125 26.35134296 -36.13981576 20.76874426 -35 13 C-33.11778474 6.99523363 -30.32404145 2.21491294 -24.87890625 -1.1015625 C-16.61467151 -5.05327558 -7.84710407 -4.99361168 0 0 Z " fill="#06D1FB" transform="translate(45,11)"/>
<path d="M0 0 C5.13308791 2.61320839 8.1797908 5.53937241 10 11 C10.39741243 16.26571469 9.6667422 19.4443154 7 24 C5.68 23.67 4.36 23.34 3 23 C3.16757812 22.43152344 3.33515625 21.86304687 3.5078125 21.27734375 C4.90667058 15.97407798 5.51513594 12.13506921 3 7 C-1.48019903 4.4994238 -5.08880374 4.98069512 -10 6 C-10.99 6.33 -11.98 6.66 -13 7 C-15.23379981 12.31097302 -15.17638558 17.47098776 -14 23 C-15.32 23 -16.64 23 -18 23 C-20.0088583 18.85672976 -20.40215934 15.58461644 -20 11 C-16.41122719 1.36697825 -9.55168724 -1.07108014 0 0 Z " fill="#10D3FB" transform="translate(37,15)"/>
<path d="M0 0 C1.79458945 0.22807491 3.58575449 0.48322303 5.375 0.75 C6.87160156 0.95882813 6.87160156 0.95882813 8.3984375 1.171875 C11 2 11 2 12.36328125 3.93359375 C13.90552375 8.93878566 10.9481443 13.45432998 9 18 C8.30859478 20.77888613 8.30859478 20.77888613 8 23 C7.38125 22.814375 6.7625 22.62875 6.125 22.4375 C3.95839822 21.76313824 3.95839822 21.76313824 2 23 C1.731875 22.154375 1.46375 21.30875 1.1875 20.4375 C0.05179279 16.93389056 0.05179279 16.93389056 -1.6875 13.5 C-3.13655963 9.63584098 -3.13014165 7.91202878 -2 4 C-1.35171218 2.65763451 -0.68810066 1.32239922 0 0 Z " fill="#FDD5C6" transform="translate(27,22)"/>
<path d="M0 0 C4.08553747 3.7278176 6.85561446 7.50694943 8 13 C8.07522969 15.33212027 8.09325876 17.6685311 8 20 C8.33 17.03 8.66 14.06 9 11 C9.33 11 9.66 11 10 11 C10.4731614 18.88602342 10.17981006 24.20780865 6 31 C4.68 31 3.36 31 2 31 C2.41971405 27.99204933 2.84450206 25.35673058 4.0625 22.5625 C5.83224307 17.72520226 5.49212829 13.55562 3.5 8.875 C0.99594223 4.37470038 -2.18599102 1.8031855 -7 0 C-12.2632191 -1.01922656 -16.64880045 -0.58271872 -21.375 2 C-26.01265899 5.31662885 -28.24130023 9.56315488 -29.45703125 15.0703125 C-29.70517452 16.70474948 -29.862712 18.35254398 -30 20 C-30.33 20 -30.66 20 -31 20 C-31.45393572 13.64489988 -30.72330262 9.2647282 -27 4 C-19.54052856 -3.97869219 -9.69057496 -5.66807215 0 0 Z " fill="#05D1FB" transform="translate(44,13)"/>
<path d="M0 0 C-0.78761719 0.52078125 -1.57523438 1.0415625 -2.38671875 1.578125 C-5.59828538 4.55446477 -6.00432407 6.49644246 -6.8125 10.75 C-7.04582031 11.92046875 -7.27914063 13.0909375 -7.51953125 14.296875 C-7.75736328 15.63492188 -7.75736328 15.63492188 -8 17 C-6.68 17.33 -5.36 17.66 -4 18 C-4.01160156 17.37351562 -4.02320313 16.74703125 -4.03515625 16.1015625 C-4.04417969 15.28429687 -4.05320312 14.46703125 -4.0625 13.625 C-4.07410156 12.81289063 -4.08570313 12.00078125 -4.09765625 11.1640625 C-4 9 -4 9 -3 7 C-2.34 7 -1.68 7 -1 7 C-1 10.96 -1 14.92 -1 19 C2.96 19 6.92 19 11 19 C10.67 15.04 10.34 11.08 10 7 C10.66 7 11.32 7 12 7 C13.17571451 10.67410785 13.07366746 14.16929183 13 18 C14.32 17.67 15.64 17.34 17 17 C16.67 14.03 16.34 11.06 16 8 C17.64350079 11.28700157 18.41321669 13.47930015 19 17 C12.23724434 21.76466876 7.18308248 22.69825704 -1 22 C-5.42696263 20.93723579 -8.38698172 19.91952741 -11 16 C-10.4609375 12.75 -10.4609375 12.75 -9.375 9 C-9.03210938 7.7625 -8.68921875 6.525 -8.3359375 5.25 C-6.47977673 0.7344276 -4.94547663 -1.64849221 0 0 Z " fill="#72D8A1" transform="translate(28,42)"/>
<path d="M0 0 C1.79458945 0.22807491 3.58575449 0.48322303 5.375 0.75 C6.87160156 0.95882813 6.87160156 0.95882813 8.3984375 1.171875 C11 2 11 2 12.375 3.90625 C13.17080044 6.57218147 12.73578291 8.35118153 12 11 C11.484375 10.690625 10.96875 10.38125 10.4375 10.0625 C7.33334577 8.70940713 4.34884993 8.38640576 1 8 C0.67 8.99 0.34 9.98 0 11 C-0.99 10.67 -1.98 10.34 -3 10 C-2.48792856 6.24480943 -1.7824918 3.33311475 0 0 Z " fill="#945B51" transform="translate(27,22)"/>
<path d="M0 0 C0.66 0 1.32 0 2 0 C4.52996301 5.05992602 3.54197104 12.92418513 2 18.25 C1.67 19.1575 1.34 20.065 1 21 C1.99 19.68 2.98 18.36 4 17 C3.32034502 22.77706732 0.27394844 27.1534464 -4 31 C-4.99 30.67 -5.98 30.34 -7 30 C-6.37641185 26.83245565 -5.27813869 24.62021505 -3.5 21.9375 C-0.25739224 17.02645743 0.1328595 13.10904042 0.0625 7.3125 C0.05798828 6.61060547 0.05347656 5.90871094 0.04882812 5.18554688 C0.03706927 3.45699462 0.01913454 1.72848635 0 0 Z " fill="#08D1FB" transform="translate(56,21)"/>
<path d="M0 0 C1 3 1 3 0.22265625 4.91015625 C-0.16019531 5.62042969 -0.54304687 6.33070312 -0.9375 7.0625 C-3.7277549 13.07078407 -4.07811557 18.34492525 -2.19921875 24.71484375 C-0.6203929 28.86611944 0.98745455 32.67633525 4 36 C4.99 36 5.98 36 7 36 C7 36.99 7 37.98 7 39 C3.6595514 38.72162928 2.27974867 38.27974867 -0.125 35.875 C-4.66419352 28.91490327 -6.54100977 22.25039902 -6 14 C-4.80645912 8.66610698 -3.50372063 4.26923943 0 0 Z " fill="#02CFFB" transform="translate(8,12)"/>
<path d="M0 0 C1.05574219 -0.03673828 1.05574219 -0.03673828 2.1328125 -0.07421875 C7.28940796 -0.102973 10.15775844 1.0088013 14.25 4.375 C18.57705153 8.71211444 19.58506316 13.02555547 19.6875 19.0625 C19.60096148 23.31306839 19.03567477 26.50962369 17.25 30.375 C16.25 27.375 16.25 27.375 17.25 24.375 C17.6859971 18.81603701 17.04430244 14.20152239 14.25 9.375 C11.08461611 5.84261508 8.02614221 3.12153733 3.25 2.375 C1.00092848 2.30709325 -1.25001605 2.29000016 -3.5 2.3125 C-5.25570313 2.32603516 -5.25570313 2.32603516 -7.046875 2.33984375 C-7.93890625 2.35144531 -8.8309375 2.36304688 -9.75 2.375 C-6.85178752 -0.52321248 -3.87721488 0.00694841 0 0 Z " fill="#38D7FB" transform="translate(33.75,8.625)"/>
<path d="M0 0 C0.33 0.66 0.66 1.32 1 2 C0.7009375 2.73992188 0.401875 3.47984375 0.09375 4.2421875 C-2.30281032 10.28494317 -2.14870356 17.20196386 0.30859375 23.1875 C1.78818389 25.8557297 3.37640374 28.41843697 5 31 C5.33 31.99 5.66 32.98 6 34 C2.40049073 32.57247607 1.10176836 31.02291657 -0.6875 27.625 C-1.10386719 26.85414062 -1.52023438 26.08328125 -1.94921875 25.2890625 C-4.66795361 19.36646537 -5.19784137 12.55167813 -3.10546875 6.34765625 C-2.13904733 4.18601399 -1.12656659 2.08213646 0 0 Z " fill="#3CD6FB" transform="translate(8,15)"/>
<path d="M0 0 C0.91007812 0.00902344 1.82015625 0.01804687 2.7578125 0.02734375 C3.80582031 0.04474609 3.80582031 0.04474609 4.875 0.0625 C4.875 0.3925 4.875 0.7225 4.875 1.0625 C4.28332031 1.09988281 3.69164063 1.13726563 3.08203125 1.17578125 C-3.51884073 1.72337097 -3.51884073 1.72337097 -9.125 5.0625 C-12.02546338 9.46320306 -12.52656418 12.8421656 -12.125 18.0625 C-11.795 18.7225 -11.465 19.3825 -11.125 20.0625 C-10.465 19.7325 -9.805 19.4025 -9.125 19.0625 C-9.455 20.7125 -9.785 22.3625 -10.125 24.0625 C-13.125 23.0625 -13.125 23.0625 -14.3125 20.9375 C-15.65239276 16.196341 -15.66374895 12.50861559 -13.9375 7.875 C-10.32276644 2.26593069 -6.52144124 -0.08360822 0 0 Z " fill="#03CFFB" transform="translate(32.125,14.9375)"/>
<path d="M0 0 C0.99 0.33 1.98 0.66 3 1 C4.39599137 6.75846439 4.39599137 12.24153561 3 18 C2.34 18 1.68 18 1 18 C0.71125 18.969375 0.4225 19.93875 0.125 20.9375 C-1 24 -1 24 -3 25 C-2.7834375 24.45214844 -2.566875 23.90429688 -2.34375 23.33984375 C0.42689104 15.45121301 0.29760345 8.26676247 0 0 Z " fill="#2DD4FB" transform="translate(58,20)"/>
<path d="M0 0 C0.66 0.33 1.32 0.66 2 1 C1.52949219 1.35191406 1.05898438 1.70382812 0.57421875 2.06640625 C-5.18989638 6.63712281 -7.71291657 11.06964924 -8.6875 18.4375 C-8.790625 19.613125 -8.89375 20.78875 -9 22 C-8.34 22 -7.68 22 -7 22 C-4.90769231 26.43076923 -4.90769231 26.43076923 -5.375 29.3125 C-5.58125 29.869375 -5.7875 30.42625 -6 31 C-10.65932763 25.1251956 -10.82413921 19.30613301 -10 12 C-7.96530014 6.75705969 -4.62747021 3.17312243 0 0 Z " fill="#49D8FA" transform="translate(22,11)"/>
<path d="M0 0 C2.1875 -0.375 2.1875 -0.375 5 0 C9.03802179 4.12979501 10.96368678 6.85751999 11.0625 12.6875 C11.041875 13.780625 11.02125 14.87375 11 16 C10.34 16 9.68 16 9 16 C8.67 16.99 8.34 17.98 8 19 C6.74299259 16.48598517 7.06593736 14.97772237 7.25 12.1875 C7.30860425 8.12622549 7.26172764 7.33060334 4.625 4 C3.75875 3.34 2.8925 2.68 2 2 C1.34 1.34 0.68 0.68 0 0 Z " fill="#2BD5FB" transform="translate(36,17)"/>
<path d="M0 0 C6.08710419 0.12681467 8.87253664 2.12198865 13.30078125 6.2109375 C15.63456135 8.66811287 16.96463351 10.23962045 17.125 13.6875 C17.08375 14.450625 17.0425 15.21375 17 16 C13 11 13 11 11.3125 8.5 C8.07569368 5.00074992 4.22606449 3.1220623 0 1 C0 0.67 0 0.34 0 0 Z " fill="#2DD4FB" transform="translate(41,3)"/>
<path d="M0 0 C2.97 0 5.94 0 9 0 C9.625 2.375 9.625 2.375 10 5 C9.34 5.66 8.68 6.32 8 7 C7.67 5.68 7.34 4.36 7 3 C5.824375 3.0928125 5.824375 3.0928125 4.625 3.1875 C3.75875 3.125625 2.8925 3.06375 2 3 C1.34 2.01 0.68 1.02 0 0 Z " fill="#A8685C" transform="translate(28,25)"/>
<path d="M0 0 C1.56197295 2.34295943 3.10846459 4.69014198 4.625 7.0625 C5.07101563 7.75472656 5.51703125 8.44695313 5.9765625 9.16015625 C7 11 7 11 7 13 C3.78920572 11.96795898 2.40059709 10.41251338 0.6875 7.625 C-1 4 -1 4 -0.75 1.5625 C-0.5025 1.046875 -0.255 0.53125 0 0 Z " fill="#2AD4FB" transform="translate(7,36)"/>
<path d="M0 0 C1.44207941 2.88415883 1.09394887 5.41721528 1.0625 8.625 C1.05347656 9.81351563 1.04445313 11.00203125 1.03515625 12.2265625 C1.02355469 13.14179687 1.01195312 14.05703125 1 15 C-2.15071358 11.20916783 -2.44269528 8.95818711 -2 4 C-1 1.5625 -1 1.5625 0 0 Z " fill="#37D6FB" transform="translate(21,22)"/>
<path d="M0 0 C2.64 0 5.28 0 8 0 C7.67 1.65 7.34 3.3 7 5 C6.38125 4.814375 5.7625 4.62875 5.125 4.4375 C2.95839822 3.76313824 2.95839822 3.76313824 1 5 C0.67 3.35 0.34 1.7 0 0 Z " fill="#FCFEFD" transform="translate(28,40)"/>
<path d="M0 0 C-0.66 1.98 -1.32 3.96 -2 6 C-2.66 6 -3.32 6 -4 6 C-4.33 6.99 -4.66 7.98 -5 9 C-5.66 7.68 -6.32 6.36 -7 5 C-2.25 -0 -2.25 -0 0 0 Z " fill="#1CD2FB" transform="translate(15,6)"/>
<path d="M0 0 C3.3 0.33 6.6 0.66 10 1 C10 1.33 10 1.66 10 2 C8.02 2 6.04 2 4 2 C3.67 2.99 3.34 3.98 3 5 C2.01 4.67 1.02 4.34 0 4 C0 2.68 0 1.36 0 0 Z " fill="#9E6A60" transform="translate(24,28)"/>
<path d="M0 0 C0.66 0 1.32 0 2 0 C4.09230769 4.43076923 4.09230769 4.43076923 3.625 7.3125 C3.41875 7.869375 3.2125 8.42625 3 9 C0.86928411 6.40608501 -0.53582673 4.36525621 -1 1 C-0.67 0.67 -0.34 0.34 0 0 Z " fill="#2AD4FB" transform="translate(13,33)"/>
</svg>
